Coordinates
version=1
nRows=19
nColumns=18
inDegrees=yes

Units are S.I. units (second, meters, Newtons, ...)
If the header above contains a line with 'inDegrees', this indicates whether rotational values are in degrees (yes) or radians (no).

endheader
time	ground_thorax_rot_x	ground_thorax_rot_y	ground_thorax_rot_z	ground_thorax_tx	ground_thorax_ty	ground_thorax_tz	clav_prot	clav_elev	scapula_abduction	scapula_elevation	scapula_upward_rot	scapula_winging	plane_elv	shoulder_elv	axial_rot	elbow_flexion	pro_sup
      1.00000000	      0.51728761	     -7.34647454	    -10.08616152	     -0.03823176	      0.01508443	      0.01076675	    -21.16800490	    -13.27028054	    -17.05835846	    -11.91644993	     19.02118252	     17.72596275	    -26.00000000	     28.09061454	     39.69986375	     26.81646272	   -171.80137687
      1.02000000	      0.51728761	     -7.49875561	     -9.88573943	     -0.03926611	      0.01587256	      0.01043448	    -21.34524217	    -13.02551180	    -16.81062743	    -11.94571565	     19.88059177	     17.43659737	    -26.00000000	     28.96894930	     39.14998350	     27.03216396	   -171.62152076
      1.04000000	      0.51728761	     -7.65314752	     -9.63642742	     -0.04041012	      0.01672560	      0.01006100	    -21.47854322	    -12.77036580	    -16.48939819	    -11.96033197	     20.72805954	     17.13862727	    -26.00000000	     29.93045899	     38.30054930	     27.19933727	   -171.25206677
      1.06000000	      0.51728761	     -7.78338316	     -9.38492664	     -0.04149362	      0.01763247	      0.00975425	    -21.68927277	    -12.52016565	    -16.23205871	    -11.99963019	     21.66292266	     16.83484750	    -26.00000000	     30.85557821	     37.52535184	     27.37829101	   -170.86454379
      1.08000000	      0.51728761	     -7.90427622	     -9.15017910	     -0.04255851	      0.01852678	      0.00946479	    -21.97175532	    -12.26320124	    -15.97938498	    -12.06799528	     22.75035806	     16.50343826	    -26.00000000	     31.69607039	     36.75656327	     27.50346588	   -170.69575724
      1.10000000	      0.51728761	     -8.04718229	     -8.87222852	     -0.04365267	      0.01946106	      0.00917761	    -22.20691591	    -11.98105207	    -15.63696777	    -12.11224027	     23.84006407	     16.15339227	    -26.00000000	     32.58514532	     35.72507685	     27.60915406	   -170.46059044
      1.12000000	      0.51728761	     -8.18218787	     -8.55888819	     -0.04477459	      0.02041977	      0.00885178	    -22.41916796	    -11.68105524	    -15.24148213	    -12.14017641	     24.93827762	     15.79110044	    -26.00000000	     33.50932873	     34.51356485	     27.65603974	   -170.11464133
      1.14000000	      0.51728761	     -8.32088971	     -8.24232643	     -0.04585405	      0.02142259	      0.00857081	    -22.65877388	    -11.38358798	    -14.81980365	    -12.18307428	     26.11591957	     15.41774605	    -26.00000000	     34.39593723	     33.28480882	     27.65808998	   -169.73544494
      1.16000000	      0.51728761	     -8.45102249	     -7.90194671	     -0.04695681	      0.02241872	      0.00829575	    -22.88628688	    -11.03865789	    -14.34496931	    -12.19482366	     27.33509774	     15.01331197	    -26.00000000	     35.26678159	     31.93113918	     27.63943568	   -169.30434319
      1.18000000	      0.51728761	     -8.59396930	     -7.52834534	     -0.04804757	      0.02343935	      0.00803626	    -23.09745757	    -10.68589878	    -13.81414474	    -12.19844351	     28.57404098	     14.60246259	    -26.00000000	     36.15336034	     30.50447394	     27.58476228	   -168.77362901
      1.20000000	      0.51728761	     -8.74743846	     -7.14667621	     -0.04915559	      0.02451980	      0.00783146	    -23.30272126	    -10.30634043	    -13.21674308	    -12.18844970	     29.87422200	     14.16950500	    -26.00000000	     36.97983503	     29.00719888	     27.46446953	   -168.20370734
      1.22000000	      0.51728761	     -8.91414145	     -6.77462427	     -0.05019573	      0.02557859	      0.00766714	    -23.52668594	     -9.91197988	    -12.57069477	    -12.17780695	     31.26038042	     13.71901265	    -26.00000000	     37.75532699	     27.61438449	     27.30634568	   -167.75217880
      1.24000000	      0.51728761	     -9.08669073	     -6.38011562	     -0.05123965	      0.02664962	      0.00750649	    -23.73123527	     -9.50123258	    -11.85723526	    -12.15127478	     32.67214700	     13.26049187	    -26.00000000	     38.53201687	     26.22029854	     27.07966955	   -167.33823245
      1.26000000	      0.51728761	     -9.25764139	     -5.93497874	     -0.05236250	      0.02773725	      0.00736873	    -23.85781665	     -9.04561951	    -11.08518822	    -12.06545241	     33.98731137	     12.80072160	    -26.00000000	     39.37940284	     24.68411020	     26.92048212	   -166.70595132
      1.28000000	      0.51728761	     -9.45506593	     -5.52294856	     -0.05340174	      0.02883391	      0.00730691	    -24.03838915	     -8.60945679	    -10.27026373	    -12.01031197	     35.43979407	     12.33705266	    -26.00000000	     40.11636200	     23.43221343	     26.65217634	   -166.27780143
      1.30000000	      0.51728761	     -9.34454378	     -5.10129480	     -0.05453229	      0.03013298	      0.00700454	    -24.34888741	     -8.34413668	     -9.75613157	    -12.04642353	     36.74333120	     11.99784905	    -26.00000000	     41.07400117	     22.91011883	     26.37528930	   -166.16480124
      1.32000000	      0.51728761	     -9.90134618	     -4.64529202	     -0.05550200	      0.03102987	      0.00728071	    -24.27397761	     -7.68243325	     -8.45280517	    -11.81657335	     38.26666005	     11.42082182	    -26.00000000	     41.65884962	     21.08986844	     26.10460174	   -165.68991901
      1.34000000	      0.51728761	    -10.13782177	     -4.21018998	     -0.05654965	      0.03215876	      0.00733568	    -24.34413279	     -7.23879359	     -7.49430235	    -11.70724747	     39.60927583	     10.99783862	    -26.00000000	     42.45677386	     19.84151044	     25.84434713	   -164.98420454
      1.36000000	      0.51728761	    -10.39980292	     -3.78806762	     -0.05754382	      0.03322939	      0.00744926	    -24.45220627	     -6.77604965	     -6.50452210	    -11.59132507	     41.05262276	     10.56414122	    -26.00000000	     43.15746244	     19.09171999	     25.52704477	   -164.87951574
